<svg id="visual" viewBox="0 0 900 600" width="900" height="600" xmlns="http://www.w3.org/2000/svg" xmlns:xlink="http://www.w3.org/1999/xlink" version="1.1"><rect x="0" y="0" width="900" height="600" fill="#001220"></rect><defs><linearGradient id="grad1_0" x1="33.3%" y1="0%" x2="100%" y2="100%"><stop offset="20%" stop-color="#001220" stop-opacity="1"></stop><stop offset="80%" stop-color="#001220" stop-opacity="1"></stop></linearGradient></defs><defs><linearGradient id="grad2_0" x1="0%" y1="0%" x2="66.7%" y2="100%"><stop offset="20%" stop-color="#001220" stop-opacity="1"></stop><stop offset="80%" stop-color="#001220" stop-opacity="1"></stop></linearGradient></defs><g transform="translate(900, 0)"><path d="M0 486.7C-67.1 482.9 -134.3 479.1 -186.3 449.7C-238.3 420.3 -275.1 365.2 -318.9 318.9C-362.7 272.6 -413.4 235 -442.5 183.3C-471.7 131.6 -479.2 65.8 -486.7 0L0 0Z" fill="#003e9c"></path></g><g transform="translate(0, 600)"><path d="M0 -486.7C69.5 -485.7 139 -484.6 186.3 -449.7C233.6 -414.8 258.8 -346 297.7 -297.7C336.6 -249.4 389.3 -221.5 423.1 -175.3C456.9 -129.1 471.8 -64.5 486.7 0L0 0Z" fill="#003e9c"></path></g></svg>