<svg id="visual" viewBox="0 0 900 600" width="900" height="600" xmlns="http://www.w3.org/2000/svg" xmlns:xlink="http://www.w3.org/1999/xlink" version="1.1"><rect x="0" y="0" width="900" height="600" fill="#001220"></rect><defs><linearGradient id="grad1_0" x1="33.3%" y1="0%" x2="100%" y2="100%"><stop offset="20%" stop-color="#001220" stop-opacity="1"></stop><stop offset="80%" stop-color="#001220" stop-opacity="1"></stop></linearGradient></defs><defs><linearGradient id="grad2_0" x1="0%" y1="0%" x2="66.7%" y2="100%"><stop offset="20%" stop-color="#001220" stop-opacity="1"></stop><stop offset="80%" stop-color="#001220" stop-opacity="1"></stop></linearGradient></defs><g transform="translate(900, 0)"><path d="M0 405.6C-46.1 368.2 -92.1 330.8 -123.2 297.5C-154.3 264.2 -170.4 235 -216.4 216.4C-262.4 197.7 -338.2 189.5 -374.7 155.2C-411.3 120.9 -408.4 60.5 -405.6 0L0 0Z" fill="#FBAE3C"></path></g><g transform="translate(0, 600)"><path d="M0 -405.6C37.9 -356 75.9 -306.4 117.9 -284.6C159.8 -262.7 205.8 -268.6 253.1 -253.1C300.5 -237.7 349.1 -201 374.7 -155.2C400.4 -109.5 403 -54.7 405.6 0L0 0Z" fill="#FBAE3C"></path></g></svg>